<svg width="24" height="24" viewBox="0 0 24 24" fill="none" xmlns="http://www.w3.org/2000/svg">
<path fill-rule="evenodd" clip-rule="evenodd" d="M4 13H18V18C18 18.5523 18.4477 19 19 19C19.5523 19 20 18.5523 20 18V12.6667L21 12V17.5C21.8284 17.5 22.5 16.8284 22.5 16V8C22.5 7.44772 22.0523 7 21.5 7L6.47213 7.00001C6.16164 7.00001 5.85542 7.0723 5.57771 7.21115L3.10557 8.44722C2.428 8.786 2 9.47853 2 10.2361V18C2 18.5523 2.44772 19 3 19C3.55228 19 4 18.5523 4 18V13ZM17.25 10C16.8358 10 16.5 10.3358 16.5 10.75V10.75C16.5 11.1642 16.8358 11.5 17.25 11.5V11.5C17.6642 11.5 18 11.1642 18 10.75V10.75C18 10.3358 17.6642 10 17.25 10V10ZM5.25 10C4.83579 10 4.5 10.3358 4.5 10.75V10.75C4.5 11.1642 4.83579 11.5 5.25 11.5V11.5C5.66421 11.5 6 11.1642 6 10.75V10.75C6 10.3358 5.66421 10 5.25 10V10ZM9.25 10C8.83579 10 8.5 10.3358 8.5 10.75V10.75C8.5 11.1642 8.83579 11.5 9.25 11.5V11.5C9.66421 11.5 10 11.1642 10 10.75V10.75C10 10.3358 9.66421 10 9.25 10V10ZM13.25 11.5C12.8358 11.5 12.5 11.1642 12.5 10.75V10.75C12.5 10.3358 12.8358 10 13.25 10V10C13.6642 10 14 10.3358 14 10.75V10.75C14 11.1642 13.6642 11.5 13.25 11.5V11.5Z" fill="#56704C"/>
<path d="M5.00001 17.5V14H6.50001V16C6.50001 16.8284 5.82844 17.5 5.00001 17.5Z" fill="#56704C"/>
</svg>
